<svg width="16" height="16" viewBox="0 0 16 16" fill="none" xmlns="http://www.w3.org/2000/svg">
<path fill-rule="evenodd" clip-rule="evenodd" d="M4.97699 0.710748C5.75899 0.674748 6.00833 0.666748 8.00033 0.666748C9.99232 0.666748 10.2417 0.675415 11.023 0.710748C11.8043 0.746081 12.3377 0.870748 12.8043 1.05141C13.293 1.23608 13.7363 1.52475 14.103 1.89808C14.4763 2.26408 14.7643 2.70675 14.9483 3.19608C15.1297 3.66275 15.2537 4.19608 15.2897 4.97608C15.3257 5.75941 15.3337 6.00875 15.3337 8.00008C15.3337 9.99208 15.325 10.2414 15.2897 11.0234C15.2543 11.8034 15.1297 12.3367 14.9483 12.8034C14.7643 13.2928 14.4758 13.7362 14.103 14.1027C13.7363 14.4761 13.293 14.7641 12.8043 14.9481C12.3377 15.1294 11.8043 15.2534 11.0243 15.2894C10.2417 15.3254 9.99232 15.3334 8.00033 15.3334C6.00833 15.3334 5.75899 15.3247 4.97699 15.2894C4.19699 15.2541 3.66366 15.1294 3.19699 14.9481C2.70761 14.7641 2.26421 14.4756 1.89766 14.1027C1.52458 13.7365 1.23587 13.2933 1.05166 12.8041C0.870992 12.3374 0.746992 11.8041 0.710992 11.0241C0.674992 10.2407 0.666992 9.99141 0.666992 8.00008C0.666992 6.00808 0.675659 5.75875 0.710992 4.97741C0.746326 4.19608 0.870992 3.66275 1.05166 3.19608C1.23614 2.7068 1.52507 2.26362 1.89833 1.89741C2.26435 1.52442 2.70731 1.23571 3.19633 1.05141C3.66299 0.870748 4.19633 0.746748 4.97633 0.710748H4.97699ZM10.9637 2.03075C10.1903 1.99541 9.95833 1.98808 8.00033 1.98808C6.04233 1.98808 5.81033 1.99541 5.03699 2.03075C4.32166 2.06341 3.93366 2.18275 3.67499 2.28341C3.33299 2.41675 3.08833 2.57475 2.83166 2.83141C2.58836 3.06812 2.40111 3.35627 2.28366 3.67475C2.18299 3.93341 2.06366 4.32141 2.03099 5.03675C1.99566 5.81008 1.98833 6.04208 1.98833 8.00008C1.98833 9.95808 1.99566 10.1901 2.03099 10.9634C2.06366 11.6787 2.18299 12.0667 2.28366 12.3254C2.40099 12.6434 2.58833 12.9321 2.83166 13.1687C3.06833 13.4121 3.35699 13.5994 3.67499 13.7167C3.93366 13.8174 4.32166 13.9367 5.03699 13.9694C5.81033 14.0047 6.04166 14.0121 8.00033 14.0121C9.95899 14.0121 10.1903 14.0047 10.9637 13.9694C11.679 13.9367 12.067 13.8174 12.3257 13.7167C12.6677 13.5834 12.9123 13.4254 13.169 13.1687C13.4123 12.9321 13.5997 12.6434 13.717 12.3254C13.8177 12.0667 13.937 11.6787 13.9697 10.9634C14.005 10.1901 14.0123 9.95808 14.0123 8.00008C14.0123 6.04208 14.005 5.81008 13.9697 5.03675C13.937 4.32141 13.8177 3.93341 13.717 3.67475C13.5837 3.33275 13.4257 3.08808 13.169 2.83141C12.9323 2.58813 12.6441 2.40089 12.3257 2.28341C12.067 2.18275 11.679 2.06341 10.9637 2.03075ZM7.06366 10.2607C7.58676 10.4785 8.16924 10.5079 8.71161 10.3439C9.25398 10.1799 9.72259 9.83269 10.0374 9.36158C10.3522 8.89046 10.4937 8.32466 10.4377 7.76082C10.3817 7.19697 10.1317 6.67006 9.73032 6.27008C9.47448 6.0144 9.16513 5.81862 8.82455 5.69685C8.48396 5.57507 8.12061 5.53032 7.76066 5.56582C7.4007 5.60133 7.05309 5.7162 6.74286 5.90217C6.43263 6.08814 6.16749 6.34058 5.96653 6.64131C5.76557 6.94205 5.63378 7.28361 5.58067 7.64139C5.52755 7.99917 5.55443 8.36428 5.65935 8.71043C5.76428 9.05657 5.94465 9.37515 6.18747 9.64323C6.4303 9.9113 6.72954 10.1222 7.06366 10.2607ZM5.33499 5.33475C5.68501 4.98473 6.10054 4.70708 6.55786 4.51766C7.01518 4.32823 7.50533 4.23073 8.00033 4.23073C8.49532 4.23073 8.98547 4.32823 9.44279 4.51766C9.90011 4.70708 10.3156 4.98473 10.6657 5.33475C11.0157 5.68476 11.2933 6.10029 11.4828 6.55761C11.6722 7.01493 11.7697 7.50508 11.7697 8.00008C11.7697 8.49508 11.6722 8.98523 11.4828 9.44255C11.2933 9.89987 11.0157 10.3154 10.6657 10.6654C9.95877 11.3723 9.00002 11.7694 8.00033 11.7694C7.00063 11.7694 6.04188 11.3723 5.33499 10.6654C4.6281 9.95852 4.23097 8.99977 4.23097 8.00008C4.23097 7.00039 4.6281 6.04164 5.33499 5.33475ZM12.6057 4.79208C12.6924 4.71026 12.7618 4.61187 12.8099 4.50273C12.8579 4.39359 12.8835 4.27593 12.8853 4.1567C12.887 4.03748 12.8648 3.91911 12.82 3.80862C12.7752 3.69813 12.7086 3.59775 12.6243 3.51344C12.54 3.42913 12.4396 3.36259 12.3291 3.31776C12.2186 3.27293 12.1003 3.25073 11.981 3.25247C11.8618 3.25421 11.7441 3.27985 11.635 3.32788C11.5259 3.37591 11.4275 3.44534 11.3457 3.53208C11.1865 3.70077 11.0994 3.92483 11.1028 4.1567C11.1062 4.38857 11.1998 4.61 11.3638 4.77398C11.5277 4.93795 11.7492 5.03157 11.981 5.03495C12.2129 5.03833 12.437 4.95121 12.6057 4.79208Z" fill="#F8F8F8"/>
</svg>
