<svg width="16" height="16" viewBox="0 0 16 16" fill="none" xmlns="http://www.w3.org/2000/svg">
<path fill-rule="evenodd" clip-rule="evenodd" d="M0.666992 1.89208C0.666992 1.5671 0.79609 1.25544 1.02588 1.02564C1.25568 0.795847 1.56735 0.66675 1.89233 0.66675H14.107C14.268 0.666487 14.4276 0.697992 14.5764 0.759461C14.7253 0.82093 14.8605 0.911156 14.9745 1.02497C15.0884 1.13879 15.1788 1.27397 15.2404 1.42276C15.3021 1.57155 15.3337 1.73103 15.3337 1.89208V14.1067C15.3338 14.2678 15.3022 14.4274 15.2407 14.5762C15.1792 14.7251 15.0889 14.8604 14.975 14.9743C14.8611 15.0882 14.7259 15.1786 14.5771 15.2402C14.4283 15.3018 14.2687 15.3335 14.1077 15.3334H1.89233C1.73136 15.3334 1.57196 15.3017 1.42326 15.2401C1.27455 15.1785 1.13944 15.0881 1.02565 14.9743C0.911857 14.8604 0.821613 14.7253 0.760074 14.5765C0.698534 14.4278 0.666905 14.2684 0.666992 14.1074V1.89208ZM6.47233 6.25875H8.45833V7.25608C8.74499 6.68275 9.47833 6.16675 10.5803 6.16675C12.693 6.16675 13.1937 7.30875 13.1937 9.40408V13.2854H11.0557V9.88142C11.0557 8.68808 10.769 8.01475 10.041 8.01475C9.03099 8.01475 8.61099 8.74075 8.61099 9.88142V13.2854H6.47233V6.25875ZM2.80566 13.1941H4.94433V6.16675H2.80566V13.1934V13.1941ZM5.25033 3.87475C5.25436 4.05786 5.22177 4.23994 5.15449 4.41029C5.0872 4.58064 4.98656 4.73584 4.85848 4.86677C4.7304 4.9977 4.57746 5.10173 4.40863 5.17275C4.2398 5.24378 4.05849 5.28036 3.87533 5.28036C3.69217 5.28036 3.51085 5.24378 3.34202 5.17275C3.17319 5.10173 3.02025 4.9977 2.89217 4.86677C2.76409 4.73584 2.66345 4.58064 2.59617 4.41029C2.52888 4.23994 2.49629 4.05786 2.50033 3.87475C2.50824 3.51532 2.65658 3.17328 2.91358 2.92187C3.17058 2.67047 3.51581 2.52969 3.87533 2.52969C4.23484 2.52969 4.58007 2.67047 4.83707 2.92187C5.09407 3.17328 5.24241 3.51532 5.25033 3.87475Z" fill="#F8F8F8"/>
</svg>
