<svg width="25" height="25" viewBox="0 0 25 25" fill="none" xmlns="http://www.w3.org/2000/svg">
<path d="M5.46875 10.1562C5.67595 10.1562 5.87466 10.2386 6.02118 10.3851C6.16769 10.5316 6.25 10.7303 6.25 10.9375V12.5C6.25 14.1576 6.90848 15.7473 8.08058 16.9194C9.25268 18.0915 10.8424 18.75 12.5 18.75C14.1576 18.75 15.7473 18.0915 16.9194 16.9194C18.0915 15.7473 18.75 14.1576 18.75 12.5V10.9375C18.75 10.7303 18.8323 10.5316 18.9788 10.3851C19.1253 10.2386 19.324 10.1562 19.5312 10.1562C19.7385 10.1562 19.9372 10.2386 20.0837 10.3851C20.2302 10.5316 20.3125 10.7303 20.3125 10.9375V12.5C20.3125 14.4368 19.5931 16.3045 18.2939 17.7408C16.9947 19.1772 15.2083 20.0798 13.2812 20.2734V23.4375H17.9688C18.176 23.4375 18.3747 23.5198 18.5212 23.6663C18.6677 23.8128 18.75 24.0115 18.75 24.2188C18.75 24.426 18.6677 24.6247 18.5212 24.7712C18.3747 24.9177 18.176 25 17.9688 25H7.03125C6.82405 25 6.62534 24.9177 6.47882 24.7712C6.33231 24.6247 6.25 24.426 6.25 24.2188C6.25 24.0115 6.33231 23.8128 6.47882 23.6663C6.62534 23.5198 6.82405 23.4375 7.03125 23.4375H11.7188V20.2734C9.79169 20.0798 8.00527 19.1772 6.70606 17.7408C5.40685 16.3045 4.68748 14.4368 4.6875 12.5V10.9375C4.6875 10.7303 4.76981 10.5316 4.91632 10.3851C5.06284 10.2386 5.26155 10.1562 5.46875 10.1562Z" fill="#F8F8F8"/>
<path d="M15.625 12.5C15.625 13.3288 15.2958 14.1237 14.7097 14.7097C14.1237 15.2958 13.3288 15.625 12.5 15.625C11.6712 15.625 10.8763 15.2958 10.2903 14.7097C9.70424 14.1237 9.375 13.3288 9.375 12.5V4.6875C9.375 3.8587 9.70424 3.06384 10.2903 2.47779C10.8763 1.89174 11.6712 1.5625 12.5 1.5625C13.3288 1.5625 14.1237 1.89174 14.7097 2.47779C15.2958 3.06384 15.625 3.8587 15.625 4.6875V12.5ZM12.5 0C11.2568 0 10.0645 0.49386 9.18544 1.37294C8.30636 2.25201 7.8125 3.4443 7.8125 4.6875V12.5C7.8125 13.7432 8.30636 14.9355 9.18544 15.8146C10.0645 16.6936 11.2568 17.1875 12.5 17.1875C13.7432 17.1875 14.9355 16.6936 15.8146 15.8146C16.6936 14.9355 17.1875 13.7432 17.1875 12.5V4.6875C17.1875 3.4443 16.6936 2.25201 15.8146 1.37294C14.9355 0.49386 13.7432 0 12.5 0V0Z" fill="#F8F8F8"/>
</svg>
