<svg width="25" height="25" viewBox="0 0 25 25" fill="none" xmlns="http://www.w3.org/2000/svg">
<path d="M17.1875 6.25H16.4062V1.5625H14.8438V6.25H10.1562V1.5625H8.59375V6.25H7.8125C7.3981 6.25 7.00067 6.41462 6.70765 6.70765C6.41462 7.00067 6.25 7.3981 6.25 7.8125V12.5C6.25255 14.021 6.80917 15.489 7.81574 16.6292C8.8223 17.7695 10.2098 18.504 11.7188 18.6953V23.4375H13.2812V18.6953C14.7902 18.504 16.1777 17.7695 17.1843 16.6292C18.1908 15.489 18.7474 14.021 18.75 12.5V7.8125C18.75 7.3981 18.5854 7.00067 18.2924 6.70765C17.9993 6.41462 17.6019 6.25 17.1875 6.25ZM17.1875 12.5C17.1875 13.7432 16.6936 14.9355 15.8146 15.8146C14.9355 16.6936 13.7432 17.1875 12.5 17.1875C11.2568 17.1875 10.0645 16.6936 9.18544 15.8146C8.30636 14.9355 7.8125 13.7432 7.8125 12.5V7.8125H17.1875V12.5Z" fill="#F8F8F8"/>
</svg>
