<svg width="16" height="14" viewBox="0 0 16 14" fill="none" xmlns="http://www.w3.org/2000/svg">
<path d="M15.7623 2.29122C15.2057 2.53789 14.6077 2.70456 13.979 2.77989C14.6277 2.39175 15.113 1.78087 15.3443 1.06122C14.7349 1.42321 14.0679 1.67802 13.3723 1.81456C12.9046 1.31513 12.285 0.984106 11.6099 0.872871C10.9347 0.761636 10.2417 0.876416 9.63849 1.19939C9.03525 1.52236 8.55552 2.03546 8.27377 2.65902C7.99202 3.28259 7.92402 3.98172 8.08033 4.64789C6.84546 4.58589 5.63742 4.26492 4.53462 3.70583C3.43181 3.14673 2.45889 2.362 1.679 1.40256C1.41233 1.86256 1.259 2.39589 1.259 2.96389C1.2587 3.47522 1.38462 3.97872 1.62559 4.42971C1.86655 4.8807 2.21511 5.26525 2.64033 5.54922C2.14718 5.53353 1.66492 5.40028 1.23367 5.16055V5.20055C1.23362 5.91772 1.48169 6.61281 1.93579 7.16789C2.38989 7.72296 3.02205 8.10384 3.725 8.24589C3.26752 8.3697 2.78789 8.38794 2.32233 8.29922C2.52066 8.9163 2.907 9.45591 3.42724 9.84251C3.94749 10.2291 4.57561 10.4433 5.22367 10.4552C4.12356 11.3188 2.76493 11.7873 1.36633 11.7852C1.11859 11.7853 0.871051 11.7708 0.625 11.7419C2.04465 12.6547 3.69723 13.1391 5.385 13.1372C11.0983 13.1372 14.2217 8.40522 14.2217 4.30122C14.2217 4.16789 14.2183 4.03322 14.2123 3.89989C14.8199 3.46054 15.3443 2.91649 15.761 2.29322L15.7623 2.29122Z" fill="#F8F8F8"/>
</svg>
